<svg height="1em" style="flex:none;line-height:1" viewBox="0 0 24 24" width="1em" xmlns="http://www.w3.org/2000/svg"><title>Meta</title><path d="M3.1 12.4c0-3.43 1.72-6.15 4.1-6.15 1.55 0 2.73.88 3.92 2.64C12.5 6.86 13.86 6 15.78 6c2.88 0 5.12 2.95 5.12 6.7 0 3.23-1.43 5.15-3.77 5.15-1.87 0-3.24-.98-5.25-4.27l-.55-.9-.54.86c-1.86 2.97-2.86 4.31-4.73 4.31-1.9 0-2.96-1.95-2.96-5.45Zm2.1.04c0 2.04.43 3.17 1.16 3.17.82 0 1.42-.82 2.98-3.3l.74-1.17-.62-.98C8.5 8.65 7.86 8.1 7.15 8.1c-1.12 0-1.95 1.78-1.95 4.34Zm7.43-1.34 1.02 1.67c1.57 2.56 2.26 2.88 3.24 2.88 1.13 0 1.83-1.1 1.83-2.92 0-2.68-1.25-4.58-3.02-4.58-1.15 0-1.98.8-3.07 2.95Z" fill="#0866ff"></path></svg>
